<svg xmlns="http://www.w3.org/2000/svg" width="1974" height="845" viewBox="0 0 1974 845"><g transform="translate(26 -2797)"><ellipse cx="521.5" cy="230.5" rx="521.5" ry="230.5" transform="translate(903 2797)" fill="#ece9e9" opacity="0.54"/><ellipse cx="331" cy="230.5" rx="331" ry="230.5" transform="translate(1286 3060)" fill="#fff"/><ellipse cx="491.5" cy="230.5" rx="491.5" ry="230.5" transform="translate(391 3043)" fill="#fff"/><ellipse cx="491.5" cy="230.5" rx="491.5" ry="230.5" transform="translate(132 3091)" fill="#f3f1f1" opacity="0.55"/><ellipse cx="380.5" cy="230.5" rx="380.5" ry="230.5" transform="translate(-26 3181)" fill="#fff"/><ellipse cx="26" cy="36" rx="26" ry="36" transform="translate(1675 3170)" fill="#f5f3f3"/><ellipse cx="26" cy="36" rx="26" ry="36" transform="translate(1745 3155)" fill="#e6e2e2"/><ellipse cx="26" cy="36" rx="26" ry="36" transform="translate(796 3007)" fill="#f5f3f3"/><ellipse cx="26" cy="36" rx="26" ry="36" transform="translate(438 3172)" fill="#d8d6d6"/><ellipse cx="26" cy="36" rx="26" ry="36" transform="translate(173 3242)" fill="#d8d6d6"/></g></svg>